PathFileType	4	(X/Y/Z)	c:/Users/goper/Files/vsCode/490R/osim_files/C15/C15_SSWS_04.trc
DataRate	CameraRate	NumFrames	NumMarkers	Units                	OrigDataRate	OrigDataStartFrame	OrigNumFrames
250.00	250.00	8	36	mm	250.0	1842	2455
                Frame#	Time	LPSIS			LASIS			LTH1			LTH2			LTH3			LTH4			LLFE			LMFE			LSH1			LSH2			LSH3			LSH4			LLMAL			LMMAL			LCAL			LMTP5			LTOE			LMTP1			RPSIS			RASIS			RTH1			RTH2			RTH3			RTH4			RLFE			RMFE			RSH1			RSH2			RSH3			RSH4			RLMAL			RMMAL			RCAL			RMTP1			RTOE			RMTP5		
		X1	Y1	Z1	X2	Y2	Z2	X3	Y3	Z3	X4	Y4	Z4	X5	Y5	Z5	X6	Y6	Z6	X7	Y7	Z7	X8	Y8	Z8	X9	Y9	Z9	X10	Y10	Z10	X11	Y11	Z11	X12	Y12	Z12	X13	Y13	Z13	X14	Y14	Z14	X15	Y15	Z15	X16	Y16	Z16	X17	Y17	Z17	X18	Y18	Z18	X19	Y19	Z19	X20	Y20	Z20	X21	Y21	Z21	X22	Y22	Z22	X23	Y23	Z23	X24	Y24	Z24	X25	Y25	Z25	X26	Y26	Z26	X27	Y27	Z27	X28	Y28	Z28	X29	Y29	Z29	X30	Y30	Z30	X31	Y31	Z31	X32	Y32	Z32	X33	Y33	Z33	X34	Y34	Z34	X35	Y35	Z35	X36	Y36	Z36

1842	7.36400	-2224.93286	1014.60010	293.56583	-2398.04004	995.88818	342.85315	-2410.49463	611.31860	423.11673	-2426.20337	567.82019	409.27133	-2457.84644	633.54187	424.96591	-2473.46533	591.40027	416.94699	-2468.67993	504.40970	387.03989	-2486.58032	490.58505	265.58170	-2445.30078	383.15170	395.59995	-2459.34033	341.32422	399.78369	-2503.97266	401.56931	402.76599	-2510.99463	356.98807	406.31137	-2588.01489	102.04130	353.74554	-2604.45044	140.11046	268.03021	-2546.65967	57.45446	301.34451	-2721.31665	96.28033	378.66309	-2764.15503	152.14735	327.52765	-2743.16138	114.51192	266.16718	-2218.34497	1019.52136	173.31909	-2367.80786	993.85291	95.85678	-2262.78149	629.53363	62.51197	-2258.88281	584.92200	74.50362	-2322.82129	620.80872	74.33963	-2309.93359	575.27759	81.46886	-2247.70703	488.66956	103.70937	-2233.88647	481.24680	221.48660	-2137.79492	406.28333	92.87749	-2126.28296	364.37244	92.61852	-2195.22314	380.68271	92.28518	-2174.83569	344.93069	89.04887	-2074.82104	107.66846	170.21719	-2108.78906	127.93278	255.14375	-2007.47559	86.55726	216.76488	-2205.58032	45.73810	255.66296	-2239.95752	61.42727	202.82347	-2177.18579	39.88042	136.22520
1843	7.36800	-2229.36987	1014.05347	294.02258	-2402.57812	995.40881	342.81073	-2414.73657	610.80511	422.74844	-2430.34058	567.37866	408.89771	-2461.72949	632.87817	424.54092	-2477.34106	590.65417	416.72870	-2472.87183	503.89157	386.61832	-2490.40454	490.18231	265.09439	-2450.86914	383.75098	396.77853	-2463.97314	340.76373	399.25107	-2508.61987	401.07666	402.02710	-2515.70239	356.53558	405.64706	-2592.84375	101.68871	352.15836	-2610.35889	139.83173	267.13284	-2551.55078	56.95165	300.66916	-2726.39502	96.75314	377.04410	-2768.55884	152.51361	325.28516	-2747.86670	114.53265	264.36249	-2222.35547	1019.07672	173.67955	-2371.71875	993.37683	95.81279	-2265.16895	629.05499	61.81987	-2262.00073	584.54169	74.58281	-2326.00269	620.32812	74.19035	-2313.00830	574.75574	81.32365	-2250.70264	488.23447	103.64329	-2237.36987	480.86816	221.48735	-2140.32544	406.49362	92.97511	-2128.55078	364.77103	92.62455	-2197.60010	380.54031	92.31959	-2177.00073	345.02139	89.07571	-2075.26489	108.27528	170.09439	-2109.44849	128.42999	254.98534	-2007.74744	87.49698	216.69398	-2205.68555	45.76151	255.59413	-2239.98145	61.40984	202.73656	-2177.20874	39.87506	136.22058
1844	7.37200	-2233.79565	1013.54071	294.51807	-2407.30542	995.00226	342.78235	-2419.01001	610.28412	422.38635	-2434.65942	566.88159	408.32089	-2466.03467	632.39374	424.24295	-2481.84375	590.27380	416.18539	-2477.27661	503.33701	386.37979	-2494.18164	489.72134	264.56674	-2455.72534	383.38580	396.65985	-2468.76367	340.20355	398.88693	-2513.16992	400.53180	401.39011	-2520.61963	355.94559	404.40250	-2597.52173	101.36685	351.57904	-2614.44824	139.21709	265.82935	-2555.88745	55.92225	300.36255	-2730.96240	96.87270	375.49905	-2772.76172	152.45081	323.34784	-2752.02881	114.16206	262.65289	-2226.32520	1018.46179	174.23932	-2374.75781	992.32080	95.95741	-2268.56250	628.64819	62.00800	-2264.98633	584.19397	74.67660	-2329.30957	619.86981	74.11937	-2316.26929	574.32275	81.20285	-2254.02051	487.91510	103.62029	-2240.87207	480.37448	221.44986	-2142.95020	406.85110	93.19447	-2130.79663	365.06677	92.67936	-2200.07446	380.44482	92.38190	-2179.27856	345.11313	89.09673	-2075.86938	109.04090	170.03003	-2110.11230	128.91951	254.85788	-2008.12878	88.51866	216.61732	-2205.79517	45.76719	255.52306	-2240.02246	61.41261	202.66820	-2177.24048	39.82404	136.21063
1845	7.37600	-2238.34766	1013.10034	294.89447	-2411.92944	994.58185	342.75131	-2423.31787	609.80066	422.02188	-2439.27319	566.57288	408.09842	-2470.51489	631.84155	423.83643	-2486.31592	589.77814	415.67612	-2481.52417	503.02258	385.66257	-2498.32422	489.37668	264.06287	-2459.14673	381.45538	394.49335	-2473.36621	339.71420	398.47598	-2517.77930	400.05219	400.65823	-2525.23169	355.42340	403.63461	-2601.44946	100.80772	350.01160	-2618.10059	138.59784	264.77206	-2559.72339	55.65816	299.66043	-2735.05688	96.51157	374.01917	-2776.70532	151.85880	321.54898	-2755.69263	113.29522	261.04239	-2230.58911	1017.89563	174.72275	-2379.54297	992.35370	95.87320	-2271.81006	628.29919	62.15726	-2268.24341	583.83667	74.72986	-2332.74829	619.42566	74.05169	-2319.47949	573.82227	81.09482	-2257.33521	487.51328	103.60236	-2244.28809	479.96173	221.46361	-2145.69214	407.12036	93.23309	-2133.16992	365.53485	92.69418	-2202.58643	380.32895	92.42858	-2181.54883	345.24084	89.13171	-2076.33301	109.70895	169.97185	-2110.83618	129.26549	254.65300	-2008.56519	89.57024	216.53281	-2205.89941	45.77710	255.45943	-2240.04932	61.39263	202.59062	-2177.26538	39.82241	136.19838
1846	7.38000	-2243.16919	1012.52551	295.25705	-2416.57642	994.17480	342.71860	-2428.08081	609.27264	421.65283	-2443.75122	566.11255	407.51215	-2475.49365	631.44507	423.61975	-2490.93628	589.33252	415.18402	-2486.02490	502.56396	385.16034	-2502.25806	488.92047	263.49493	-2464.61743	382.38986	395.72375	-2477.82153	339.27637	397.95303	-2522.50903	399.51187	399.92267	-2529.73633	354.82938	402.89377	-2605.29590	100.35395	349.47913	-2621.51831	137.78952	263.51346	-2562.68042	55.76003	298.65524	-2738.57251	95.80250	372.51947	-2780.17505	150.93774	319.82584	-2758.96582	112.12247	259.46606	-2234.84717	1017.43958	175.15388	-2383.50439	991.85443	95.90063	-2275.96924	628.19788	63.02505	-2271.68945	583.42798	74.88095	-2336.11841	618.89612	74.01175	-2322.86035	573.36615	81.05277	-2260.88159	487.17404	103.63303	-2248.08643	479.45465	221.53119	-2148.52051	407.41080	93.31564	-2135.78784	365.90182	92.84093	-2205.16797	380.18405	92.54244	-2183.87695	345.40543	89.17842	-2076.89551	110.46665	169.98283	-2111.20435	130.20604	255.14120	-2009.05383	90.68353	216.54097	-2206.07886	45.80851	255.37849	-2240.07617	61.39917	202.53015	-2177.29126	39.81437	136.20126
1847	7.38400	-2247.00757	1012.38239	295.61447	-2421.21118	993.76892	342.70166	-2432.89014	608.79852	421.41049	-2448.49414	565.73590	407.06128	-2479.84766	630.90668	423.09302	-2495.63354	588.87738	414.65265	-2490.76270	502.19827	384.68631	-2506.49243	488.56210	262.90744	0.00000	0.00000	0.00000	-2482.17700	338.88229	397.49854	-2527.00610	398.96069	399.15417	-2534.18530	354.27731	402.20224	-2608.24902	99.64871	347.98770	-2624.54321	136.94633	262.35416	-2565.31982	56.06689	297.33893	-2741.57739	94.61608	371.16852	-2783.51636	149.36496	318.09546	-2761.76514	110.55872	258.04727	-2239.07251	1016.87012	175.67311	-2386.67798	990.82587	96.09632	-2279.52466	627.81763	63.17137	-2275.17163	583.03168	74.99332	-2339.60400	618.39197	74.05522	-2326.33765	572.88843	81.05628	-2264.09985	486.66663	103.65820	-2251.85742	478.96054	221.53862	-2151.42578	407.73386	93.37680	-2138.32812	366.30911	92.94275	-2207.82300	380.07816	92.64276	-2186.27124	345.49014	89.24466	-2077.42554	111.21710	169.92761	-2112.26001	131.07722	255.61504	-2009.47986	91.96996	216.46440	-2206.22070	45.83732	255.33496	-2240.10571	61.38042	202.47702	-2177.29785	39.78772	136.20453
1848	7.38800	-2252.13013	1011.81342	296.23737	-2425.79956	993.33344	342.72141	-2437.77051	608.36377	421.09750	-2453.22998	565.24646	406.53351	-2484.73584	630.50531	422.65186	-2499.40479	588.07007	413.58981	-2495.51318	501.77936	384.09323	-2510.76514	488.23264	262.35403	-2472.59790	380.38586	393.44540	-2486.49023	338.45462	397.12543	-2531.60010	398.41403	398.46732	-2539.04248	353.73584	400.44720	-2611.00684	98.88008	346.99561	-2627.23608	135.93005	261.23798	-2567.41895	55.63896	297.26099	-2744.23535	93.16004	369.75079	-2786.37305	147.35599	316.44012	-2764.12793	108.53922	256.65271	-2242.66797	1016.31763	175.28394	-2390.74341	990.28546	96.19846	-2282.47583	627.21875	62.70335	-2278.67651	582.68567	75.18209	-2343.23364	617.91187	74.10408	-2329.24536	572.35712	80.81956	-2267.60962	486.20441	103.73013	-2255.60962	478.42191	221.60680	-2154.36426	408.04175	93.39236	-2141.00244	366.79315	93.02608	-2210.50830	379.93576	92.75257	-2188.82739	345.64783	89.31268	-2078.11304	112.14770	169.85895	-2112.64600	131.40480	255.04393	-2010.00464	93.18340	216.38799	-2206.34961	45.85219	255.30580	-2240.10547	61.35992	202.41632	-2177.33032	39.81128	136.21437
1849	7.39200	-2256.77612	1011.41925	296.69699	-2430.49902	992.95325	342.73773	-2442.66260	608.15582	420.62219	-2458.34009	564.91479	406.11096	-2489.72754	630.13257	422.19229	-2505.41699	588.10956	413.50549	-2500.33862	501.30966	383.57529	-2515.05786	487.89954	261.80420	-2477.91724	381.43707	394.46353	-2490.61157	338.12823	396.59772	-2536.09180	397.76718	397.71631	-2543.33423	353.12421	399.75577	-2613.52246	97.93289	346.12100	-2629.57935	134.84772	260.25388	-2568.97412	55.71838	296.63284	-2746.42725	91.36318	368.35580	-2789.00098	145.02663	314.79407	-2766.05298	106.10586	255.30568	-2248.16602	1015.68762	176.62759	-2395.73706	990.30835	96.07909	-2286.18506	626.80408	62.94359	-2282.34082	582.26392	75.43609	-2346.89087	617.44641	74.19936	-2332.79956	571.93860	80.88536	-2271.35254	485.84216	103.79685	-2259.40869	477.89819	221.73553	-2157.44312	408.35977	93.50217	-2143.75684	367.18259	93.14494	-2213.38818	379.83609	92.83387	-2191.41260	345.76498	89.38227	-2078.77661	112.98763	169.82281	-2113.52612	132.06747	255.01053	-2010.47363	94.50808	216.37207	-2206.50513	45.85363	255.27422	-2240.17603	61.37254	202.38193	-2177.36548	39.79767	136.21695
